<svg width="55" height="27" viewBox="0 0 55 27" fill="none" xmlns="http://www.w3.org/2000/svg">
<path d="M12.7123 19.07H12.6913C11.1748 19.07 9.75809 18.4718 8.69814 17.3856C7.63819 16.2994 7.07673 14.8669 7.10822 13.3504C7.17643 10.3595 9.66888 7.91952 12.6598 7.90378C14.4439 7.89328 16.1493 8.75383 17.2092 10.2073L22.955 6.02526C21.491 4.01555 19.4813 2.50434 17.2092 1.63854C15.7819 1.09283 14.2497 0.80423 12.6913 0.80423H12.6283C9.32256 0.819972 6.18995 2.11605 3.81294 4.44583C1.43593 6.77037 0.0873807 9.87675 0.00342445 13.1825C-0.0752845 16.63 1.20505 19.8885 3.61354 22.3547C6.01679 24.8157 9.23861 26.1747 12.6808 26.18L19.7856 26.222L25.4264 19.1487L12.7123 19.0752V19.07Z" fill="black"/>
<path d="M54.937 11.0941H50.1201V15.9111H54.937V11.0941Z" fill="black"/>
<path d="M31.6287 0.704529H22.5247L31.2823 11.771L35.8475 6.05149L31.6287 0.704529Z" fill="black"/>
<path d="M48.4357 19.1801H48.4199C46.9979 19.1644 45.6756 18.519 44.7993 17.4013L41.6877 13.4501L44.7416 9.5934C45.6232 8.48098 46.9402 7.83557 48.357 7.82507L54.9318 7.74636L54.8373 0.641571L48.2835 0.715033C45.0774 0.746516 42.0813 2.06358 39.8984 4.35139L37.1961 7.74112L32.6309 13.4606L30.3326 16.3466L28.1393 19.1172H28.1235L22.4827 26.1905L31.5657 26.243L37.1593 19.1801L39.232 21.7985C41.4516 24.6111 44.7783 26.2482 48.3622 26.2849L54.9056 26.3584L55 19.2536L48.4514 19.1749L48.4357 19.1801Z" fill="black"/>
</svg>
